
<svg width="1360px" height="248px" viewBox="0 0 1360 248" version="1.1" xmlns="http://www.w3.org/2000/svg" xmlns:xlink="http://www.w3.org/1999/xlink">
    <defs>
        <linearGradient x1="1.73276886%" y1="109.327424%" x2="140.309569%" y2="-52.45639%" id="linearGradient-1">
            <stop stop-color="#ED6287" offset="0%"></stop>
            <stop stop-color="#E01236" offset="100%"></stop>
        </linearGradient>
        <linearGradient x1="20.8379689%" y1="97.2737588%" x2="118.490775%" y2="-49.5446942%" id="linearGradient-2">
            <stop stop-color="#ED6287" offset="0%"></stop>
            <stop stop-color="#E01236" offset="100%"></stop>
        </linearGradient>
        <linearGradient x1="33.7355385%" y1="90.6087104%" x2="111.859118%" y2="-79.7180445%" id="linearGradient-3">
            <stop stop-color="#ED6287" offset="0%"></stop>
            <stop stop-color="#E01236" offset="100%"></stop>
        </linearGradient>
    </defs>
    <g id="Page-1" stroke="none" stroke-width="1" fill="none" fill-rule="evenodd">
        <g id="SideLogo" transform="translate(-280.000000, -416.000000)">
            <g id="BC" transform="translate(280.000000, 416.000000)">
                <g id="Logo">
                    <path d="M67.9,227.7 C59.2,245.3 37.9,252.6 20.2,243.9 C2.6,235.2 -4.7,213.9 4,196.3 C10.4,183.3 23.6,176 37.2,176.5 C42.1,176.6 47,177.8 51.7,180.1 C56.4,182.4 60.3,185.6 63.4,189.4 C72.1,199.7 74.3,214.7 67.9,227.7 Z" id="Path" fill="#E02C4B"></path>
                    <path d="M361.3,51.8 L276.1,227.7 C282.5,214.8 280.16486,199.907485 271.56486,189.407485 C268.46486,185.607485 264.627994,182.468018 259.927994,180.168018 C255.227994,177.868018 250.386398,176.615542 245.486398,176.515542 C231.886398,176.015542 218.6,183.3 212.2,196.2 L257.6,102.4 L257.7,102.2 L297.3,20.3 C306,2.7 327.3,-4.6 344.9,4.1 C362.7,12.8 370,34.1 361.3,51.8 Z" id="Path" fill="url(#linearGradient-1)"></path>
                    <path d="M276.1,227.7 C267.4,245.3 246.1,252.6 228.4,243.9 C210.8,235.2 203.5,213.9 212.2,196.3 C218.6,183.3 231.8,176 245.4,176.5 C250.3,176.6 255.2,177.8 259.9,180.1 C264.6,182.4 268.5,185.6 271.6,189.4 C280.3,199.7 282.5,214.7 276.1,227.7 Z" id="Path" fill="#E02C4B"></path>
                    <path d="M239.1,86.4 C238.7,90.4 237.5,94.3 235.7,98.1 L235,99.5 L201.8,167.2 L171.928865,227.885819 C178.328865,214.985819 176.080094,200.070749 167.480094,189.570749 C164.380094,185.770749 160.675294,182.768674 155.975294,180.468674 C151.275294,178.168674 146.176169,176.816608 141.276169,176.716608 C127.676169,176.216608 114.416803,183.6 108.016803,196.5 L171.7,66.7 C180.4,49.1 201.7,41.8 219.3,50.5 C230.7,56.1 237.8,67.1 239,78.9 C239.4,81.4 239.4,83.9 239.1,86.4 Z" id="Path" fill="url(#linearGradient-2)"></path>
                    <path d="M172,227.7 C163.3,245.3 142,252.6 124.3,243.9 C106.7,235.2 99.4,213.9 108.1,196.3 C114.5,183.3 127.7,176 141.3,176.5 C146.2,176.6 151.1,177.8 155.8,180.1 C160.5,182.4 164.4,185.6 167.5,189.4 C176.2,199.7 178.4,214.7 172,227.7 Z" id="Path" fill="#E02C4B"></path>
                    <path d="M235.6,98.1 C226.9,115.7 205.6,123 187.9,114.3 C170.3,105.6 163,84.3 171.7,66.7 C178.1,53.7 191.3,46.4 204.9,46.9 C209.8,47 214.7,48.2 219.4,50.5 C224.1,52.8 228,56 231.1,59.8 C239.8,70.2 242,85.2 235.6,98.1 Z" id="Path" fill="#3A1A53" opacity="0.85"></path>
                    <path d="M361.3,51.7 C352.6,69.3 331.3,76.6 313.6,67.9 C296,59.2 288.7,37.9 297.4,20.3 C303.8,7.3 317,-5.68434189e-14 330.6,0.5 C335.5,0.6 340.4,1.8 345.1,4.1 C349.8,6.4 353.7,9.6 356.8,13.4 C365.5,23.8 367.7,38.8 361.3,51.7 Z" id="Path" fill="#3A1A53" opacity="0.85"></path>
                    <path d="M96.6,169.5 L67.7657003,227.903668 C74.1657003,215.003668 71.9484083,199.928146 63.3484083,189.428146 C60.2484083,185.628146 56.3331966,182.424096 51.6331966,180.124096 C46.9331966,177.824096 42.0222271,176.648587 37.1222271,176.548587 C23.5222271,176.048587 10.4072414,183.420962 4.00724139,196.320962 L32.7,138 C41.4,120.4 62.7,113.1 80.3,121.8 C98,130.5 105.3,151.8 96.6,169.5 Z" id="Path" fill="url(#linearGradient-3)"></path>
                </g>
                <g id="Name" transform="translate(371.000000, 130.000000)" fill="#3A1A53">
                    <path d="M45,114.4 L0.1,114.4 L0.1,5 L42.6,5 C53.9,5 62.7,7.5 69,12.4 C75.3,17.3 78.5,25.1 78.5,35.6 C78.5,42.5 74.6,49 66.8,55.1 C78.1,61 83.7,70.1 83.7,82.3 C83.7,92.3 80.2,100.1 73.2,105.9 C66.2,111.6 56.8,114.4 45,114.4 Z M39.5,22.4 L20.8,22.4 L20.8,49.6 L36.3,49.6 C42.4,49.6 47.3,48.4 50.9,46.1 C54.5,43.8 56.4,40.4 56.4,35.9 C56.4,31 55,27.5 52.1,25.4 C49.3,23.4 45.1,22.4 39.5,22.4 Z M44.8,66.5 L20.8,66.5 L20.8,97.2 L43.3,97.2 C49,97.2 53.5,95.9 56.8,93.3 C60.1,90.7 61.8,87.1 61.8,82.4 C61.8,77.4 60.3,73.4 57.2,70.6 C54.2,67.9 50.1,66.5 44.8,66.5 Z" id="Shape" fill-rule="nonzero"></path>
                    <path d="M166.5,81.6 L113.9,81.6 C115,87.1 117.3,91.3 120.9,94.2 C124.5,97.1 130,98.5 137.4,98.5 C141.7,98.5 145.6,97.9 149,96.7 C152.4,95.5 156.1,93.8 160.1,91.6 L166.2,106.7 C162.2,109.8 157.9,112.2 153.3,113.9 C148.7,115.6 143.2,116.4 136.9,116.4 C122.1,116.4 110.9,112.8 103.2,105.5 C95.5,98.3 91.7,88.3 91.7,75.5 C91.7,67.2 93.3,60 96.4,53.8 C99.6,47.6 104.1,42.8 110,39.4 C115.9,36 122.9,34.3 130.9,34.3 C138.7,34.3 145.3,36.1 150.7,39.8 C156.1,43.4 160,48.4 162.6,54.5 C165.2,60.7 166.5,67.6 166.5,75.2 L166.5,81.6 Z M114,67.6 L146.7,67.6 C145.6,62.5 143.7,58.6 141,56 C138.3,53.4 134.7,52.1 130.5,52.1 C126.2,52.1 122.6,53.4 119.7,56 C116.8,58.7 114.9,62.5 114,67.6 Z" id="Shape" fill-rule="nonzero"></path>
                    <path d="M186.9,58.7 L181.3,41.3 C184.1,39.5 188.5,37.8 194.7,36.4 C200.8,35 205.7,34.2 209.3,34.2 C215.5,34.2 221.2,35.4 226.4,37.9 C231.5,40.4 235.7,43.8 238.7,48.2 C241.8,52.6 243.3,57.5 243.3,63 L243.3,114.3 L229.6,114.3 L226.1,105.9 C219.6,112.8 212.7,116.2 205.5,116.2 C196.2,116.2 189.1,113.9 184.4,109.4 C179.7,104.8 177.3,98.7 177.3,91 C177.3,83.1 180,76.9 185.3,72.6 C190.7,68.3 197.9,66.1 206.9,66.1 L222.2,66.1 C222.1,62.1 220.9,59 218.7,56.8 C216.5,54.6 213.5,53.5 209.6,53.5 C206.1,53.5 202.1,54 197.9,55 C193.6,56.1 190,57.3 186.9,58.7 Z M195.2,91.1 C195.2,93.5 196.1,95.5 198,97.2 C199.9,98.9 202.3,99.8 205.2,99.8 C211.4,99.8 217.2,97.2 222.4,92.1 L222.4,80.2 L206.6,80.2 C203.2,80.2 200.4,81.3 198.3,83.4 C196.2,85.5 195.2,88.1 195.2,91.1 Z" id="Shape" fill-rule="nonzero"></path>
                    <path d="M312.8,36.4 L333.7,36.4 L333.7,114.5 L320,114.5 L316.5,106.1 C311.7,109.5 306.5,112.2 301,114.1 C295.5,116 290.6,117 286.4,117 C276.5,117 269.6,114.2 265.6,108.6 C261.6,103 259.6,95.2 259.6,85.3 L259.6,36.4 L280.5,36.4 L280.5,84.4 C280.5,89.2 281.5,93 283.5,95.7 C285.5,98.4 288.2,99.7 291.8,99.7 C295.4,99.7 298.9,98.9 302.1,97.2 C305.3,95.5 308.9,93.3 312.7,90.5 L312.7,36.4 L312.8,36.4 Z" id="Path"></path>
                    <path d="M389.6,36.5 L396,52.6 L375.4,52.6 L375.4,85.8 C375.4,90 376.4,93.4 378.4,95.9 C380.4,98.5 383.2,99.8 386.9,99.8 C389.7,99.8 392.5,99.1 395.4,97.7 L401.5,112.8 C399.9,114.1 397.5,115.2 394.3,116.2 C391.1,117.2 388.3,117.6 385.7,117.6 C375.9,117.6 368.3,115.1 362.8,110.2 C357.3,105.3 354.6,98.3 354.6,89.4 L354.6,52.5 L344.1,52.5 L344.1,36.4 L354.6,36.4 L354.6,18 L375.4,14.3 L375.4,36.5 L389.6,36.5 Z" id="Path"></path>
                    <path d="M423.1,25.3 C419.9,25.3 417.1,24.2 414.9,21.9 C412.6,19.6 411.5,16.9 411.5,13.5 C411.5,10.2 412.6,7.4 414.9,5.1 C417.2,2.8 419.9,1.7 423.1,1.7 C426.4,1.7 429.2,2.8 431.5,5.1 C433.8,7.4 435,10.1 435,13.5 C435,16.8 433.8,19.6 431.5,21.9 C429.2,24.1 426.4,25.3 423.1,25.3 Z M412.8,114.4 L412.8,36.3 L433.7,36.3 L433.7,114.4 L412.8,114.4 Z" id="Shape" fill-rule="nonzero"></path>
                    <path d="M444.5,52.6 L444.5,36.5 L456.6,36.5 L456.6,30.5 C456.6,21.4 459.3,14.2 464.6,9.1 C470,3.9 477.4,1.4 487,1.4 C489.5,1.4 492.3,1.9 495.4,2.8 C498.5,3.8 500.9,4.9 502.6,6.3 L496.6,21.4 C493.1,20 490.2,19.3 487.9,19.3 C484.4,19.3 481.7,20.6 480,23.1 C478.3,25.6 477.4,29 477.4,33.3 L477.4,36.4 L492.2,36.4 L498.8,52.5 L477.4,52.5 L477.4,114.3 L456.5,114.3 L456.5,52.5 L444.5,52.5 L444.5,52.6 Z" id="Path"></path>
                    <path d="M563.9,36.4 L584.8,36.4 L584.8,114.5 L571.1,114.5 L567.6,106.1 C562.8,109.5 557.6,112.2 552.1,114.1 C546.6,116 541.7,117 537.5,117 C527.6,117 520.7,114.2 516.7,108.6 C512.7,103 510.7,95.2 510.7,85.3 L510.7,36.4 L531.6,36.4 L531.6,84.4 C531.6,89.2 532.6,93 534.6,95.7 C536.6,98.4 539.3,99.7 542.9,99.7 C546.5,99.7 550,98.9 553.2,97.2 C556.4,95.5 560,93.3 563.8,90.5 L563.8,36.4 L563.9,36.4 Z" id="Path"></path>
                    <polygon id="Path" points="604.1 114.4 604.1 2.6 624.9 0.8 624.9 114.4 604.1 114.4"></polygon>
                    <path d="M722.8,9.8 L716.4,24.8 L712.4,23.7 C708.2,22.4 704.9,21.5 702.4,21 C699.9,20.5 696.9,20.3 693.2,20.3 C687.4,20.3 682.2,21.9 677.6,25.1 C673,28.3 669.4,32.9 666.7,38.9 C664.1,44.9 662.8,51.9 662.8,60 C662.8,67.2 664,73.8 666.3,79.7 C668.6,85.7 672,90.4 676.4,93.9 C680.8,97.4 686,99.1 692,99.1 C699.9,99.1 707.9,97.4 716,94.1 L723.9,109.6 C719.8,111.7 714.9,113.5 709,114.7 C703.2,116 697.9,116.6 693.1,116.6 C682,116.6 672.6,114.1 664.8,109.2 C657,104.3 651.1,97.5 647.1,89 C643.1,80.5 641.1,70.8 641.1,60.1 C641.1,48.9 643.3,39 647.6,30.3 C651.9,21.6 658.1,14.8 666.1,9.9 C674.1,5 683.3,2.6 693.9,2.6 C697.8,2.6 702.5,3.2 708.1,4.4 C713.5,5.7 718.5,7.4 722.8,9.8 Z" id="Path"></path>
                    <path d="M808.4,96.9 C805,103.1 800.1,107.9 793.8,111.3 C787.5,114.7 780.2,116.4 771.8,116.4 C763.4,116.4 756.1,114.7 749.8,111.4 C743.5,108.1 738.7,103.3 735.2,97.2 C731.8,91 730.1,83.8 730.1,75.6 C730.1,67.4 731.8,60.1 735.2,53.9 C738.6,47.7 743.5,42.9 749.8,39.5 C756.1,36.1 763.4,34.4 771.8,34.4 C780.2,34.4 787.5,36.1 793.8,39.4 C800.1,42.7 804.9,47.5 808.4,53.6 C811.8,59.8 813.6,67 813.6,75.2 C813.5,83.4 811.8,90.7 808.4,96.9 Z M786.3,91.9 C790.1,87.5 792,81.9 792,75.2 C792,68.5 790.1,62.9 786.4,58.6 C782.6,54.3 777.8,52.2 771.9,52.2 C766.1,52.2 761.3,54.4 757.5,58.8 C753.7,63.2 751.8,68.8 751.8,75.5 C751.8,82.2 753.7,87.8 757.4,92.1 C761.2,96.4 766,98.5 771.9,98.5 C777.6,98.5 782.4,96.3 786.3,91.9 Z" id="Shape" fill-rule="nonzero"></path>
                    <path d="M899.2,0.8 L899.2,114.4 L888.3,114.4 L883.5,107.3 C876.6,113.3 869.1,116.3 861,116.3 C848.9,116.3 839.3,112.6 832.3,105.3 C825.3,97.9 821.8,88 821.8,75.4 C821.8,67.2 823.4,60.1 826.5,53.8 C829.7,47.6 834.3,42.7 840.3,39.3 C846.3,35.9 853.4,34.2 861.7,34.2 C864.3,34.2 867,34.7 869.9,35.6 C872.8,36.5 875.6,37.8 878.3,39.4 L878.3,2.5 L899.2,0.8 Z M848.1,92.1 C851.4,96.3 855.9,98.5 861.7,98.5 C864.5,98.5 867.2,98 869.8,96.9 C872.4,95.8 875.2,94.2 878.1,92.1 L878.1,58.8 C875.3,56.4 872.6,54.8 870.1,53.7 C867.5,52.7 864.7,52.2 861.7,52.2 C856,52.2 851.5,54.4 848.2,58.7 C844.9,63 843.2,68.7 843.2,75.5 C843.2,82.3 844.8,87.9 848.1,92.1 Z" id="Shape" fill-rule="nonzero"></path>
                    <path d="M988.5,81.6 L935.9,81.6 C937,87.1 939.3,91.3 942.9,94.2 C946.5,97.1 952,98.5 959.4,98.5 C963.7,98.5 967.6,97.9 971,96.7 C974.4,95.5 978.1,93.8 982.1,91.6 L988.2,106.7 C984.2,109.8 979.9,112.2 975.3,113.9 C970.7,115.6 965.2,116.4 958.9,116.4 C944.1,116.4 932.9,112.8 925.2,105.5 C917.5,98.3 913.7,88.3 913.7,75.5 C913.7,67.2 915.3,60 918.4,53.8 C921.6,47.6 926.1,42.8 932,39.4 C937.9,36 944.9,34.3 952.9,34.3 C960.7,34.3 967.3,36.1 972.7,39.8 C978.1,43.4 982,48.4 984.6,54.5 C987.2,60.7 988.5,67.6 988.5,75.2 L988.5,81.6 Z M936,67.6 L968.7,67.6 C967.6,62.5 965.7,58.6 963,56 C960.3,53.4 956.7,52.1 952.5,52.1 C948.2,52.1 944.6,53.4 941.7,56 C938.8,58.7 936.9,62.5 936,67.6 Z" id="Shape" fill-rule="nonzero"></path>
                </g>
            </g>
        </g>
    </g>
</svg>
